<?xml version="1.0" encoding="utf-8"?>
<!-- Generator: Adobe Illustrator 24.0.1, SVG Export Plug-In . SVG Version: 6.00 Build 0)  -->
<svg version="1.1" id="Layer_1" xmlns="http://www.w3.org/2000/svg" xmlns:xlink="http://www.w3.org/1999/xlink" x="0px" y="0px"
	 viewBox="0 0 100 80" style="enable-background:new 0 0 100 80;" xml:space="preserve">
<style type="text/css">
	.st0{fill:#E07924;}
</style>
<g>
	<path class="st0" d="M86.6,12.6c2.9-2.2,5.9-4.5,8.4-7.3c-30,11.3-60,11.3-90,0c2.6,2.7,5.5,5.1,8.5,7.3c-3.2,4.2-4.3,8.9-3.2,14
		c1.6,7,5.9,11.5,12.8,13.4c2.9,0.8,5.8,1,8.8,1.3c5,0.5,10.1,0.7,15.1,0.4c0.8,0,1.7-0.1,2.5-0.2c-0.3-0.1-0.5-0.2-0.8-0.2
		c-3-0.3-6-0.6-9-1c-4.8-0.7-9.5-1.4-14.3-2.2c-3.8-0.6-7-2.3-9.5-5.2c-4.8-5.6-5.7-11.9-2.8-18.7c0.2-0.5,0.5-0.9,0.7-1.3
		c2.7,1.8,5.3,3.5,7.9,5.2c-2.9,2.6-3.3,6.2-2.2,8.9c1.2,3,3.5,4.8,6.7,5c4.7,0.3,7.4-2.2,8.6-6.7c0.1,0,0.1,0,0.1,0
		c0.3,0.2,0.6,0.3,0.9,0.5c3.2,1.8,6.5,3.7,9.2,6.3c2.3,2.1,3.9,4.7,4.7,7.7c0.1,0.5,0.2,0.9,0.3,1.4c0.1,0,0.1,0,0.1-0.1
		c0-0.1,0-0.2,0.1-0.3c0.6-3,1.8-5.7,4-7.9c1-1,2-1.9,3.1-2.8c2.5-2,5.2-3.5,8.1-5.1c0.4,1.9,1.1,3.4,2.5,4.7c1.4,1.3,3,2,4.9,2.1
		c3.5,0.1,6.2-1.4,7.6-4.5c1.6-3.5,0.8-6.7-2-9.4c2.6-1.7,5.3-3.4,7.9-5.1c0.1,0.1,0.1,0.2,0.2,0.3c4,7.5,2.1,16.5-4.4,21.7
		c-2.4,1.9-5.1,2.9-8.1,3.4c-7.2,1.3-14.4,2.3-21.6,2.9c-0.3,0-0.7,0.1-1,0.1c-0.3,0-0.6,0.1-0.9,0.1c4.1,0.4,8.2,0.5,12.3,0.2
		c4.2-0.2,8.4-0.7,12.5-1.4c4.8-0.8,8.7-3.1,11.5-7.1c3.8-5.4,4.4-11.3,1.7-17.4C88,14.8,87.2,13.8,86.6,12.6z M32.7,25.4
		c-0.5,2.5-2.7,4.5-5.2,4.7c-2.7,0.2-5.1-1.2-6.1-3.6c-1-2.5-0.3-5.2,1.7-6.9c0.3-0.3,0.6-0.4,1-0.1c0.1,0.1,0.3,0.2,0.5,0.3
		c-1.4,2.5-0.4,5.2,1.5,6.4c2.2,1.3,4.6,0.6,6.5-2C32.9,24.6,32.8,25,32.7,25.4z M78.6,26.4c-0.9,2.2-3.1,3.7-5.4,3.7
		c-3.2,0-5.8-2.4-6-5.6c0-0.1,0-0.2,0.1-0.4c0.8,1.5,2,2.4,3.6,2.7c1.1,0.2,2.2-0.1,3.1-0.7c2-1.3,2.5-3.7,1.4-6.3
		c1.1-0.7,0.9-0.8,1.9,0.1C79,21.6,79.5,24.2,78.6,26.4z M71.7,17.4c-3.9,2-7.8,4.2-11.5,6.7c-2.3,1.6-4.5,3.4-6.4,5.5
		c-1.8,2-3.1,4.3-3.7,7c0,0.1-0.1,0.1-0.1,0.2c-0.1-0.2-0.1-0.3-0.1-0.5c-0.8-3-2.4-5.5-4.6-7.7c-2.7-2.7-5.8-4.9-9.1-6.8
		c-3.9-2.2-7.9-4.4-11.9-6.5c-5-2.6-10.1-5.2-15.1-7.8C9,7.4,8.9,7.3,8.7,7.2c0,0,0-0.1,0-0.1c0.9,0.4,1.7,0.7,2.6,1.1
		c3.8,1.6,7.7,2.8,11.6,4c6.8,2.1,13.4,4.5,19.6,8c2.5,1.5,4.9,3.2,7.1,5.1c0.1,0.1,0.2,0.2,0.4,0.3c0.5-0.4,1-0.8,1.4-1.2
		c3.8-3.2,8.1-5.6,12.7-7.5c5.2-2.3,10.6-4.1,16-5.6c3.6-1.1,7.1-2.4,10.6-3.9c0.2-0.1,0.3-0.1,0.5-0.1c-0.9,0.5-1.8,1-2.7,1.4
		C83,11.6,77.3,14.5,71.7,17.4z"/>
	<path class="st0" d="M18.4,41.6c1.5,4,14,19.5,17.4,21.6c0-0.1,0.1-0.1,0.1-0.2c0-1.4,0-2.9,0-4.3c0-0.2-0.2-0.5-0.3-0.7
		c-3.3-3.4-6.3-7-9-10.8c-0.1-0.2-0.2-0.3-0.4-0.5c2.8,0.4,5.6,0.8,8.4,1.1c2.8,0.3,5.6,0.5,8.3,0.7c0,6,0,11.9,0,17.8
		c-1.1,0-2-0.3-2.9-0.7c-0.9-0.4-1.8-0.8-2.8-1.2c3.9,3.8,8.2,7.1,12.8,10.2c4.4-2.9,8.6-6.1,12.4-9.7c-0.9,0.3-1.7,0.7-2.6,1
		c-0.9,0.3-1.8,0.6-2.8,0.7c0-6.1,0-12,0-18.1c5.6-0.3,11.2-0.9,16.9-1.8c-0.1,0.2-0.2,0.3-0.3,0.4c-2.5,3.5-5.3,6.9-8.2,10
		c-0.5,0.5-1.1,0.9-1.3,1.5c-0.2,0.6-0.1,1.3-0.1,2c0,0.9,0,1.8,0,2.8c4-2.8,16.1-17.9,17.5-21.8C60.5,46.3,39.5,46.3,18.4,41.6z"/>
</g>
</svg>
